<?xml version="1.0" encoding="UTF-8"?>
<svg id="_Слой_2" data-name="Слой 2" xmlns="http://www.w3.org/2000/svg" viewBox="0 0 1080 1978">
  <defs>
    <style>
      .cls-1 {
        fill: #fff;
      }

      .cls-2 {
        fill: #005d95;
      }

      .cls-3 {
        fill: #ffda50;
      }

      .cls-4 {
        fill: #fc0;
      }
    </style>
  </defs>
  <polygon points="1080 1762.03 1080 1732.05 1079.81 1732.05 1079.84 1762.03 1080 1762.03"/>
  <polygon points="1079.81 1732.05 1050.02 1732.05 1050.02 1762.03 1079.84 1762.03 1079.81 1732.05"/>
  <polygon class="cls-2" points="1078.45 1.52 1048.95 1.52 1078.45 1.57 1078.45 1.52"/>
  <g>
    <polygon class="cls-2" points="1051.51 .05 .14 .05 -.11 824.68 -.11 1979.06 1082.29 1979.06 1082.29 1522.43 1081.1 .1 1051.51 .05"/>
    <g>
      <path class="cls-4" d="m.11-1.15l-.04,136.38c.05,0,.11,0,.16,0,53.35,0,96.59-43.24,96.59-96.59,0-14.13-3.04-27.56-8.49-39.66L.11-1.15Z"/>
      <path class="cls-3" d="m.11-1.15l-.04,130.39c.05,0,.1,0,.16,0,50.04,0,90.6-40.56,90.6-90.6,0-14.23-3.28-27.69-9.13-39.67L.11-1.15Z"/>
      <path class="cls-4" d="m.11-1.15l-.04,131.18c44.83-3.17,80.27-42.65,80.27-90.89,0-14.43-3.19-28.06-8.83-40.18L.11-1.15Z"/>
      <path class="cls-1" d="m66.43,13.65H20.92c-1.51,0-2.85-.97-3.31-2.41L13.59-1.13.11-1.15l-.02,71.52c.76-.03,1.54.18,2.19.65l36.82,26.75c2.73,1.98,6.4-.68,5.36-3.89l-14.06-43.29c-.47-1.43.04-3.01,1.26-3.89l36.82-26.75c2.73-1.98,1.33-6.3-2.05-6.3Z"/>
    </g>
    <g>
      <path class="cls-4" d="m289.41-.7c-.98,4.91-1.5,9.99-1.5,15.18,0,42.79,34.68,77.47,77.47,77.47s77.47-34.68,77.47-77.47c0-5.11-.51-10.11-1.45-14.95l-151.99-.24Z"/>
      <path class="cls-3" d="m294.32-.7c-1.04,4.9-1.6,9.97-1.6,15.17,0,40.13,32.53,72.67,72.67,72.67s72.67-32.53,72.67-72.67c0-5.13-.54-10.13-1.55-14.95l-142.19-.22Z"/>
      <path class="cls-4" d="m293.11-.7c-1.03,5.02-1.59,10.23-1.59,15.58,0,40.35,30.92,73.07,69.06,73.07s69.06-32.71,69.06-73.07c0-5.27-.54-10.41-1.54-15.37l-134.99-.21Z"/>
      <path class="cls-1" d="m389.58,24.06c-.37-1.15.04-2.41,1.01-3.12L420.11-.5l-109.64-.17c.06.05.12.11.18.16l29.53,21.46c.98.71,1.39,1.97,1.01,3.12l-11.28,34.72c-.84,2.57,2.11,4.71,4.3,3.12l29.53-21.46c.98-.71,2.3-.71,3.28,0l29.53,21.46c2.19,1.59,5.13-.55,4.3-3.12l-11.28-34.72Z"/>
    </g>
    <g>
      <circle class="cls-4" cx="455.86" cy="120.93" r="95.11"/>
      <circle class="cls-3" cx="455.86" cy="120.93" r="89.21"/>
      <ellipse class="cls-4" cx="449.96" cy="121.42" rx="84.78" ry="89.7"/>
      <path class="cls-1" d="m459.12,51.33l13.85,42.62c.46,1.41,1.78,2.37,3.26,2.37h44.81c3.32,0,4.7,4.25,2.01,6.2l-36.26,26.34c-1.2.87-1.7,2.42-1.25,3.83l13.85,42.62c1.03,3.16-2.59,5.78-5.28,3.83l-36.26-26.34c-1.2-.87-2.83-.87-4.03,0l-36.26,26.34c-2.69,1.95-6.3-.67-5.28-3.83l13.85-42.62c.46-1.41-.04-2.96-1.25-3.83l-36.26-26.34c-2.69-1.95-1.31-6.2,2.01-6.2h44.81c1.49,0,2.8-.96,3.26-2.37l13.85-42.62c1.03-3.16,5.49-3.16,6.52,0Z"/>
    </g>
    <g>
      <path class="cls-4" d="m601.51-.22c-.66,3.02-1.02,6.16-1.02,9.37,0,24.19,19.61,43.81,43.81,43.81s43.81-19.61,43.81-43.81c0-3.17-.35-6.26-.99-9.24l-85.62-.13Z"/>
      <path class="cls-3" d="m604.29-.22c-.7,3.01-1.09,6.14-1.09,9.37,0,22.69,18.4,41.09,41.09,41.09s41.09-18.4,41.09-41.09c0-3.18-.37-6.27-1.06-9.25l-80.04-.12Z"/>
      <path class="cls-4" d="m603.6-.22c-.69,3.08-1.07,6.29-1.07,9.6,0,22.82,17.49,41.32,39.05,41.32s39.05-18.5,39.05-41.32c0-3.26-.37-6.43-1.04-9.48l-75.99-.12Z"/>
      <path class="cls-1" d="m675.25.68c.29-.21.47-.49.57-.78l-63.08-.1c.08.33.27.64.6.88l16.7,12.13c.55.4.79,1.11.57,1.77l-6.38,19.63c-.47,1.45,1.19,2.66,2.43,1.77l16.7-12.13c.55-.4,1.3-.4,1.86,0l16.7,12.13c1.24.9,2.9-.31,2.43-1.77l-6.38-19.63c-.21-.65.02-1.36.57-1.77l16.7-12.13Z"/>
    </g>
    <g>
      <path class="cls-4" d="m834.75.14c-.11,1.99-.17,3.99-.17,6,0,60.33,48.91,109.24,109.24,109.24s109.24-48.91,109.24-109.24c0-1.9-.05-3.79-.14-5.66l-218.17-.34Z"/>
      <path class="cls-3" d="m841.54.15c-.11,1.98-.18,3.98-.18,5.99,0,56.59,45.88,102.47,102.47,102.47s102.47-45.88,102.47-102.47c0-1.9-.06-3.8-.16-5.67l-204.6-.32Z"/>
      <path class="cls-4" d="m839.87.15c-.13,2.17-.2,4.35-.2,6.56,0,56.9,43.6,103.03,97.39,103.03s97.39-46.13,97.39-103.03c0-2.1-.07-4.19-.18-6.26l-194.39-.3Z"/>
      <path class="cls-1" d="m977.94,19.66c-.53-1.62.05-3.4,1.43-4.4l20.45-14.86-112.23-.17,20.69,15.03c1.38,1,1.96,2.78,1.43,4.4l-15.91,48.96c-1.18,3.63,2.97,6.64,6.06,4.4l41.64-30.26c1.38-1,3.25-1,4.63,0l41.64,30.26c3.09,2.24,7.24-.77,6.06-4.4l-15.91-48.96Z"/>
    </g>
    <g>
      <circle class="cls-4" cx="785.68" cy="140.87" r="67.65"/>
      <circle class="cls-3" cx="785.68" cy="140.87" r="63.45"/>
      <ellipse class="cls-4" cx="781.49" cy="141.22" rx="60.3" ry="63.8"/>
      <path class="cls-1" d="m788,91.37l9.85,30.31c.33,1,1.26,1.68,2.32,1.68h31.87c2.36,0,3.34,3.02,1.43,4.41l-25.79,18.74c-.85.62-1.21,1.72-.89,2.73l9.85,30.31c.73,2.25-1.84,4.11-3.75,2.73l-25.79-18.74c-.85-.62-2.01-.62-2.87,0l-25.79,18.74c-1.91,1.39-4.48-.48-3.75-2.73l9.85-30.31c.33-1-.03-2.11-.89-2.73l-25.79-18.74c-1.91-1.39-.93-4.41,1.43-4.41h31.87c1.06,0,1.99-.68,2.32-1.68l9.85-30.31c.73-2.25,3.91-2.25,4.64,0Z"/>
    </g>
    <g>
      <path class="cls-4" d="m28.41,229.58c-9.28,0-18.17,1.66-26.39,4.69l-.04,143.36c8.24,3.04,17.14,4.7,26.44,4.7,42.18,0,76.37-34.19,76.37-76.37s-34.19-76.37-76.37-76.37Z"/>
      <path class="cls-3" d="m28.41,234.32c-9.33,0-18.22,1.8-26.4,5.04l-.04,133.17c8.18,3.25,17.09,5.06,26.43,5.06,39.56,0,71.64-32.07,71.64-71.64s-32.07-71.64-71.64-71.64Z"/>
      <path class="cls-4" d="m23.67,234.32c-7.57,0-14.85,1.33-21.66,3.74l-.04,136.56c6.82,2.42,14.11,3.76,21.7,3.76,37.6,0,68.08-32.25,68.08-72.03s-30.48-72.03-68.08-72.03Z"/>
      <path class="cls-1" d="m80.75,286.2h-35.99c-1.19,0-2.25-.77-2.62-1.9l-11.12-34.23c-.82-2.54-4.41-2.54-5.24,0l-11.12,34.23c-.37,1.13-1.43,1.9-2.62,1.9H2v24.99s1.56,1.14,1.56,1.14c.96.7,1.37,1.94,1,3.08l-2.57,7.92v26.26s24.8-18.03,24.8-18.03c.96-.7,2.27-.7,3.24,0l29.11,21.15c2.16,1.57,5.06-.54,4.24-3.08l-11.12-34.23c-.37-1.13.04-2.38,1-3.08l29.11-21.15c2.16-1.57,1.05-4.98-1.62-4.98Z"/>
    </g>
    <g>
      <circle class="cls-4" cx="248.71" cy="314.65" r="60.81"/>
      <circle class="cls-3" cx="248.71" cy="314.65" r="57.04"/>
      <ellipse class="cls-4" cx="244.94" cy="314.96" rx="54.21" ry="57.35"/>
      <path class="cls-1" d="m250.79,270.14l8.85,27.25c.29.9,1.14,1.51,2.08,1.51h28.65c2.12,0,3.01,2.72,1.29,3.97l-23.18,16.84c-.77.56-1.09,1.55-.8,2.45l8.85,27.25c.66,2.02-1.66,3.7-3.37,2.45l-23.18-16.84c-.77-.56-1.81-.56-2.58,0l-23.18,16.84c-1.72,1.25-4.03-.43-3.37-2.45l8.85-27.25c.29-.9-.03-1.89-.8-2.45l-23.18-16.84c-1.72-1.25-.83-3.97,1.29-3.97h28.65c.95,0,1.79-.61,2.08-1.51l8.85-27.25c.66-2.02,3.51-2.02,4.17,0Z"/>
    </g>
    <g>
      <path class="cls-4" d="m44.15,349.62c-14.73,0-28.9,2.37-42.17,6.72l-.08,256.74c13.29,4.37,27.49,6.75,42.25,6.75,74.62,0,135.11-60.49,135.11-135.11s-60.49-135.11-135.11-135.11Z"/>
      <path class="cls-3" d="m44.15,358c-14.79,0-28.98,2.54-42.18,7.2l-.07,239.03c13.22,4.67,27.43,7.22,42.25,7.22,69.99,0,126.73-56.74,126.73-126.73s-56.74-126.73-126.73-126.73Z"/>
      <path class="cls-4" d="m35.78,358c-11.73,0-23.07,1.78-33.8,5.09l-.07,244.64c10.75,3.33,22.11,5.12,33.87,5.12,66.52,0,120.44-57.05,120.44-127.43s-53.92-127.43-120.44-127.43Z"/>
      <path class="cls-1" d="m136.75,449.77h-63.66c-2.11,0-3.98-1.36-4.63-3.37l-19.67-60.55c-1.46-4.49-7.81-4.49-9.26,0l-19.67,60.55c-.65,2.01-2.52,3.37-4.63,3.37H1.95v48.59c.32.97.35,2.05.01,3.08l-.03.09-.02,57.09,39.37-28.61c1.71-1.24,4.02-1.24,5.72,0l51.5,37.42c3.82,2.77,8.95-.96,7.49-5.44l-19.67-60.55c-.65-2.01.06-4.2,1.77-5.44l51.5-37.42c3.82-2.77,1.86-8.81-2.86-8.81Z"/>
    </g>
    <g>
      <circle class="cls-4" cx="948.75" cy="680.61" r="58.2"/>
      <circle class="cls-3" cx="948.75" cy="680.61" r="54.59"/>
      <ellipse class="cls-4" cx="945.14" cy="680.91" rx="51.88" ry="54.89"/>
      <path class="cls-1" d="m954.35,638.38l5.99,26.76c.2.89.95,1.55,1.85,1.63l27.3,2.57c2.02.19,2.62,2.86.87,3.89l-23.6,13.97c-.78.46-1.18,1.38-.98,2.26l5.99,26.76c.44,1.98-1.91,3.38-3.43,2.03l-20.58-18.13c-.68-.6-1.67-.69-2.46-.23l-23.6,13.97c-1.75,1.03-3.8-.77-2.99-2.64l10.89-25.17c.36-.83.14-1.81-.54-2.41l-20.58-18.13c-1.52-1.34-.44-3.85,1.58-3.66l27.3,2.57c.9.09,1.76-.42,2.12-1.26l10.89-25.17c.81-1.87,3.53-1.61,3.97.37Z"/>
    </g>
    <g>
      <circle class="cls-4" cx="1017.77" cy="1027.31" r="46.92"/>
      <circle class="cls-3" cx="1017.77" cy="1027.31" r="44.01"/>
      <ellipse class="cls-4" cx="1014.86" cy="1027.55" rx="41.83" ry="44.25"/>
      <path class="cls-1" d="m1019.38,992.97l6.83,21.03c.23.7.88,1.17,1.61,1.17h22.11c1.64,0,2.32,2.1.99,3.06l-17.89,13c-.59.43-.84,1.19-.61,1.89l6.83,21.03c.51,1.56-1.28,2.85-2.6,1.89l-17.89-13c-.59-.43-1.4-.43-1.99,0l-17.89,13c-1.33.96-3.11-.33-2.6-1.89l6.83-21.03c.23-.7-.02-1.46-.61-1.89l-17.89-13c-1.33-.96-.64-3.06.99-3.06h22.11c.73,0,1.38-.47,1.61-1.17l6.83-21.03c.51-1.56,2.71-1.56,3.22,0Z"/>
    </g>
    <g>
      <circle class="cls-4" cx="970.85" cy="1407.93" r="46.92"/>
      <circle class="cls-3" cx="970.85" cy="1407.93" r="44.01"/>
      <ellipse class="cls-4" cx="967.94" cy="1408.17" rx="41.83" ry="44.25"/>
      <path class="cls-1" d="m980.15,1374.97l1.39,22.07c.05.73.56,1.35,1.27,1.53l21.41,5.5c1.59.41,1.73,2.61.2,3.21l-20.56,8.14c-.68.27-1.11.95-1.07,1.68l1.39,22.07c.1,1.64-1.95,2.45-2.99,1.18l-14.09-17.03c-.47-.56-1.24-.76-1.93-.49l-20.56,8.14c-1.52.6-2.93-1.1-2.05-2.48l11.84-18.67c.39-.62.34-1.42-.13-1.98l-14.09-17.03c-1.04-1.26.14-3.12,1.72-2.72l21.41,5.5c.71.18,1.46-.11,1.85-.73l11.84-18.67c.88-1.38,3.01-.84,3.12.8Z"/>
    </g>
    <g>
      <path class="cls-4" d="m81.57,716.65c0-44.09-35.63-79.85-79.67-80.07l-.05,160.14c44.06-.2,79.72-35.96,79.72-80.07Z"/>
      <path class="cls-3" d="m76.6,716.65c0-41.35-33.41-74.88-74.71-75.1l-.04,150.21c41.32-.2,74.75-33.74,74.75-75.1Z"/>
      <path class="cls-4" d="m67.91,717.07c0-39.8-29.1-72.38-66.01-75.29l-.04,150.59c36.93-2.89,66.06-35.48,66.06-75.29Z"/>
      <path class="cls-1" d="m56.37,695.93H18.64c-1.25,0-2.36-.8-2.75-1.99l-11.66-35.89c-.38-1.17-1.33-1.83-2.34-1.97l-.03,86.89c.47.06.92.23,1.32.52l30.53,22.18c2.26,1.64,5.31-.57,4.44-3.23l-11.66-35.89c-.39-1.19.04-2.49,1.05-3.23l30.53-22.18c2.26-1.64,1.1-5.22-1.7-5.22Z"/>
    </g>
    <g>
      <circle class="cls-4" cx="942.96" cy="1831.96" r="66.21"/>
      <circle class="cls-3" cx="942.96" cy="1831.96" r="62.11"/>
      <ellipse class="cls-4" cx="938.86" cy="1832.3" rx="59.03" ry="62.45"/>
      <path class="cls-1" d="m945.23,1783.51l9.64,29.67c.32.98,1.24,1.65,2.27,1.65h31.2c2.31,0,3.27,2.96,1.4,4.32l-25.24,18.34c-.84.61-1.19,1.68-.87,2.67l9.64,29.67c.71,2.2-1.8,4.03-3.67,2.67l-25.24-18.34c-.84-.61-1.97-.61-2.81,0l-25.24,18.34c-1.87,1.36-4.39-.47-3.67-2.67l9.64-29.67c.32-.98-.03-2.06-.87-2.67l-25.24-18.34c-1.87-1.36-.91-4.32,1.4-4.32h31.2c1.03,0,1.95-.67,2.27-1.65l9.64-29.67c.71-2.2,3.83-2.2,4.54,0Z"/>
    </g>
    <g>
      <path class="cls-4" d="m834.23,1949.97c0-53.34-43.24-96.58-96.58-96.58s-96.58,43.24-96.58,96.58c0,10.12,1.56,19.87,4.44,29.03h184.27c2.89-9.16,4.44-18.92,4.44-29.03Z"/>
      <path class="cls-3" d="m828.24,1949.97c0-50.03-40.56-90.59-90.59-90.59s-90.59,40.56-90.59,90.59c0,10.16,1.67,19.92,4.75,29.03h171.67c3.08-9.11,4.75-18.88,4.75-29.03Z"/>
      <path class="cls-4" d="m817.76,1950.47c0-50.31-38.55-91.09-86.1-91.09s-86.1,40.78-86.1,91.09c0,9.97,1.52,19.56,4.32,28.53h163.56c2.8-8.98,4.32-18.57,4.32-28.53Z"/>
      <path class="cls-1" d="m772,1952.02c-.87-1.23-.86-2.88.04-4.09l27.1-36.56c2.01-2.71-.62-6.4-3.84-5.39l-43.41,13.65c-1.44.45-3.01-.07-3.88-1.3l-26.39-37.07c-1.96-2.75-6.28-1.39-6.32,1.99l-.44,45.51c-.01,1.51-1,2.84-2.44,3.29l-43.41,13.65c-3.22,1.01-3.26,5.55-.06,6.62l43.14,14.48c1.43.48,2.39,1.83,2.37,3.33l-.09,8.9h76.84l-19.21-26.98Z"/>
    </g>
    <g>
      <circle class="cls-4" cx="701.49" cy="1791.06" r="37.03"/>
      <circle class="cls-3" cx="701.49" cy="1791.06" r="34.73"/>
      <ellipse class="cls-4" cx="699.19" cy="1791.25" rx="33.01" ry="34.92"/>
      <path class="cls-1" d="m698.33,1764.14l8.28,15.36c.27.51.85.78,1.41.68l17.16-3.13c1.27-.23,2.1,1.3,1.21,2.23l-12.04,12.62c-.4.42-.48,1.05-.21,1.56l8.28,15.36c.61,1.14-.59,2.4-1.75,1.84l-15.73-7.55c-.52-.25-1.14-.14-1.54.28l-12.04,12.62c-.89.94-2.46.18-2.29-1.1l2.32-17.29c.08-.57-.22-1.13-.74-1.38l-15.73-7.55c-1.17-.56-.93-2.28.34-2.52l17.16-3.13c.57-.1,1.01-.56,1.08-1.14l2.32-17.29c.17-1.28,1.88-1.59,2.5-.46Z"/>
    </g>
    <g>
      <circle class="cls-4" cx="313.8" cy="1913.91" r="49.6"/>
      <circle class="cls-3" cx="313.8" cy="1913.91" r="46.52"/>
      <ellipse class="cls-4" cx="310.72" cy="1914.17" rx="44.21" ry="46.78"/>
      <path class="cls-1" d="m315.5,1877.62l7.22,22.23c.24.74.93,1.24,1.7,1.24h23.37c1.73,0,2.45,2.22,1.05,3.23l-18.91,13.74c-.63.46-.89,1.26-.65,2l7.22,22.23c.54,1.65-1.35,3.02-2.75,2l-18.91-13.74c-.63-.46-1.48-.46-2.1,0l-18.91,13.74c-1.4,1.02-3.29-.35-2.75-2l7.22-22.23c.24-.74-.02-1.54-.65-2l-18.91-13.74c-1.4-1.02-.68-3.23,1.05-3.23h23.37c.77,0,1.46-.5,1.7-1.24l7.22-22.23c.54-1.65,2.87-1.65,3.4,0Z"/>
    </g>
    <g>
      <circle class="cls-4" cx="484.13" cy="1885.37" r="62.24"/>
      <circle class="cls-3" cx="484.13" cy="1885.37" r="58.38"/>
      <ellipse class="cls-4" cx="480.27" cy="1885.7" rx="55.49" ry="58.71"/>
      <path class="cls-1" d="m486.26,1839.82l9.06,27.89c.3.92,1.16,1.55,2.13,1.55h29.33c2.17,0,3.08,2.78,1.32,4.06l-23.73,17.24c-.79.57-1.12,1.58-.82,2.51l9.06,27.89c.67,2.07-1.69,3.79-3.45,2.51l-23.73-17.24c-.79-.57-1.85-.57-2.64,0l-23.73,17.24c-1.76,1.28-4.12-.44-3.45-2.51l9.06-27.89c.3-.92-.03-1.94-.82-2.51l-23.73-17.24c-1.76-1.28-.85-4.06,1.32-4.06h29.33c.97,0,1.83-.63,2.13-1.55l9.06-27.89c.67-2.07,3.6-2.07,4.27,0Z"/>
    </g>
    <g>
      <circle class="cls-4" cx="199.47" cy="1751.96" r="63.14"/>
      <circle class="cls-3" cx="199.47" cy="1751.96" r="59.22"/>
      <ellipse class="cls-4" cx="195.55" cy="1752.29" rx="56.29" ry="59.55"/>
      <path class="cls-1" d="m201.63,1705.76l9.19,28.29c.3.94,1.18,1.57,2.16,1.57h29.75c2.2,0,3.12,2.82,1.34,4.12l-24.07,17.49c-.8.58-1.13,1.61-.83,2.54l9.19,28.29c.68,2.1-1.72,3.84-3.5,2.54l-24.07-17.49c-.8-.58-1.88-.58-2.68,0l-24.07,17.49c-1.78,1.3-4.18-.45-3.5-2.54l9.19-28.29c.3-.94-.03-1.96-.83-2.54l-24.07-17.49c-1.78-1.3-.87-4.12,1.34-4.12h29.75c.99,0,1.86-.63,2.16-1.57l9.19-28.29c.68-2.1,3.65-2.1,4.33,0Z"/>
    </g>
    <g>
      <path class="cls-4" d="m100.35,1728.88c-39.01,0-74.38,15.6-100.21,40.9l-.06,204.63c1.3,1.27,2.62,2.53,3.96,3.76h192.62c28.84-26.2,46.94-64.01,46.94-106.04,0-79.11-64.13-143.25-143.25-143.25Z"/>
      <path class="cls-3" d="m100.35,1737.76c-39.83,0-75.61,17.34-100.22,44.87l-.05,178.91c5.41,6.06,11.34,11.63,17.75,16.62h165.03c31.55-24.59,51.85-62.94,51.85-106.04,0-74.21-60.16-134.36-134.36-134.36Z"/>
      <path class="cls-4" d="m91.46,1737.76c-35.8,0-68.14,15.59-91.33,40.69l-.06,188.75c3.59,3.89,7.38,7.56,11.39,10.96h160c29.08-24.76,47.7-62.73,47.7-105.3,0-74.62-57.17-135.1-127.7-135.1Z"/>
      <path class="cls-1" d="m198.52,1835.06h-67.5c-2.24,0-4.22-1.44-4.91-3.57l-20.86-64.19c-1.55-4.76-8.28-4.76-9.82,0l-20.86,64.19c-.69,2.13-2.67,3.57-4.91,3.57H2.17c-.76,0-1.44.16-2.05.42v9.63s53.63,38.96,53.63,38.96c1.81,1.31,2.57,3.65,1.88,5.77l-20.86,64.19c-1.55,4.76,3.9,8.71,7.95,5.77l54.61-39.67c1.81-1.31,4.26-1.31,6.07,0l54.61,39.67c4.05,2.94,9.49-1.02,7.95-5.77l-20.86-64.19c-.69-2.13.07-4.46,1.88-5.77l54.61-39.67c4.05-2.94,1.97-9.34-3.03-9.34Z"/>
    </g>
    <g>
      <path class="cls-4" d="m43.41,1448.88c-14.96,0-29.12,3.42-41.75,9.51l-.05,173.37c12.64,6.11,26.82,9.53,41.8,9.53,53.13,0,96.2-43.07,96.2-96.2s-43.07-96.2-96.2-96.2Z"/>
      <path class="cls-3" d="m43.41,1454.84c-15.07,0-29.27,3.7-41.75,10.23l-.05,160c12.5,6.54,26.72,10.25,41.8,10.25,49.84,0,90.24-40.4,90.24-90.24s-40.4-90.24-90.24-90.24Z"/>
      <path class="cls-4" d="m37.44,1454.84c-12.77,0-24.89,2.96-35.79,8.26l-.05,164.93c10.91,5.31,23.04,8.28,35.84,8.28,47.37,0,85.76-40.62,85.76-90.73s-38.4-90.73-85.76-90.73Z"/>
      <path class="cls-1" d="m109.34,1520.19h-45.33c-1.5,0-2.83-.97-3.3-2.4l-14.01-43.11c-1.04-3.2-5.56-3.2-6.6,0l-14.01,43.11c-.46,1.43-1.8,2.4-3.3,2.4H1.64v25.31s10.47,7.61,10.47,7.61c1.22.88,1.72,2.45,1.26,3.88l-11.75,36.17v11.33c.97.32,2.08.22,3.08-.5l36.67-26.65c1.22-.88,2.86-.88,4.08,0l36.67,26.65c2.72,1.97,6.37-.68,5.34-3.88l-14.01-43.11c-.46-1.43.04-2.99,1.26-3.88l36.67-26.65c2.72-1.97,1.32-6.27-2.04-6.27Z"/>
    </g>
    <g>
      <circle class="cls-4" cx="92.61" cy="941.31" r="52.39"/>
      <circle class="cls-3" cx="92.61" cy="941.31" r="49.14"/>
      <ellipse class="cls-4" cx="89.36" cy="941.59" rx="46.7" ry="49.41"/>
      <path class="cls-1" d="m94.4,902.98l7.63,23.48c.25.78.98,1.3,1.8,1.3h24.69c1.83,0,2.59,2.34,1.11,3.42l-19.97,14.51c-.66.48-.94,1.33-.69,2.11l7.63,23.48c.57,1.74-1.43,3.19-2.91,2.11l-19.97-14.51c-.66-.48-1.56-.48-2.22,0l-19.97,14.51c-1.48,1.08-3.47-.37-2.91-2.11l7.63-23.48c.25-.78-.02-1.63-.69-2.11l-19.97-14.51c-1.48-1.08-.72-3.42,1.11-3.42h24.69c.82,0,1.54-.53,1.8-1.3l7.63-23.48c.57-1.74,3.03-1.74,3.59,0Z"/>
    </g>
    <g>
      <circle class="cls-4" cx="67.91" cy="1228.12" r="52.39"/>
      <circle class="cls-3" cx="67.91" cy="1228.12" r="49.14"/>
      <ellipse class="cls-4" cx="64.66" cy="1228.39" rx="46.7" ry="49.41"/>
      <path class="cls-1" d="m69.71,1189.79l7.63,23.48c.25.78.98,1.3,1.8,1.3h24.69c1.83,0,2.59,2.34,1.11,3.42l-19.97,14.51c-.66.48-.94,1.33-.69,2.11l7.63,23.48c.57,1.74-1.43,3.19-2.91,2.11l-19.97-14.51c-.66-.48-1.56-.48-2.22,0l-19.97,14.51c-1.48,1.08-3.47-.37-2.91-2.11l7.63-23.48c.25-.78-.02-1.63-.69-2.11l-19.97-14.51c-1.48-1.08-.72-3.42,1.11-3.42h24.69c.82,0,1.54-.53,1.8-1.3l7.63-23.48c.57-1.74,3.03-1.74,3.59,0Z"/>
    </g>
    <g>
      <circle class="cls-4" cx="130.41" cy="1035.11" r="77.95"/>
      <circle class="cls-3" cx="130.41" cy="1035.11" r="73.11"/>
      <ellipse class="cls-4" cx="125.57" cy="1035.51" rx="69.49" ry="73.52"/>
      <path class="cls-1" d="m133.08,978.07l11.35,34.93c.38,1.16,1.45,1.94,2.67,1.94h36.73c2.72,0,3.85,3.48,1.65,5.08l-29.71,21.59c-.98.72-1.4,1.98-1.02,3.14l11.35,34.93c.84,2.59-2.12,4.74-4.32,3.14l-29.71-21.59c-.98-.72-2.32-.72-3.3,0l-29.71,21.59c-2.2,1.6-5.16-.55-4.32-3.14l11.35-34.93c.38-1.16-.04-2.43-1.02-3.14l-29.71-21.59c-2.2-1.6-1.07-5.08,1.65-5.08h36.73c1.22,0,2.3-.78,2.67-1.94l11.35-34.93c.84-2.59,4.5-2.59,5.34,0Z"/>
    </g>
    <g>
      <circle class="cls-4" cx="100.05" cy="1312.57" r="77.95"/>
      <circle class="cls-3" cx="100.05" cy="1312.57" r="73.11"/>
      <ellipse class="cls-4" cx="95.21" cy="1312.97" rx="69.49" ry="73.52"/>
      <path class="cls-1" d="m102.72,1255.53l11.35,34.93c.38,1.16,1.45,1.94,2.67,1.94h36.73c2.72,0,3.85,3.48,1.65,5.08l-29.71,21.59c-.98.72-1.4,1.98-1.02,3.14l11.35,34.93c.84,2.59-2.12,4.74-4.32,3.14l-29.71-21.59c-.98-.72-2.32-.72-3.3,0l-29.71,21.59c-2.2,1.6-5.16-.55-4.32-3.14l11.35-34.93c.38-1.16-.04-2.43-1.02-3.14l-29.71-21.59c-2.2-1.6-1.07-5.08,1.65-5.08h36.73c1.22,0,2.3-.78,2.67-1.94l11.35-34.93c.84-2.59,4.5-2.59,5.34,0Z"/>
    </g>
    <g>
      <circle class="cls-4" cx="865.02" cy="1635.32" r="64.65"/>
      <circle class="cls-3" cx="865.02" cy="1635.32" r="60.64"/>
      <ellipse class="cls-4" cx="861.01" cy="1635.65" rx="57.64" ry="60.98"/>
      <path class="cls-1" d="m841.43,1595.01l24.74,17.78c.82.59,1.93.58,2.74-.01l24.56-18.03c1.82-1.34,4.29.44,3.6,2.59l-9.27,29.02c-.31.96.04,2.01.86,2.6l24.74,17.78c1.83,1.32.91,4.21-1.35,4.22l-30.46.15c-1.01,0-1.9.66-2.21,1.62l-9.27,29.02c-.69,2.15-3.72,2.17-4.43.02l-9.56-28.93c-.32-.96-1.21-1.6-2.22-1.6l-30.46.15c-2.26.01-3.21-2.87-1.39-4.21l24.56-18.03c.81-.6,1.15-1.65.83-2.61l-9.56-28.93c-.71-2.14,1.74-3.94,3.57-2.62Z"/>
    </g>
    <g>
      <g>
        <path class="cls-4" d="m1068.31,108.61c-25.17,0-45.57,20.4-45.57,45.57s20.4,45.57,45.57,45.57c4.46,0,8.77-.65,12.84-1.85l-.07-87.47c-4.05-1.18-8.34-1.83-12.77-1.83Z"/>
        <path class="cls-3" d="m1068.31,111.44c-23.61,0-42.75,19.14-42.75,42.75s19.14,42.75,42.75,42.75c4.47,0,8.79-.69,12.84-1.97l-.06-81.58c-4.03-1.26-8.33-1.94-12.78-1.94Z"/>
        <path class="cls-4" d="m1065.49,111.44c-22.44,0-40.63,19.24-40.63,42.98s18.19,42.98,40.63,42.98c5.55,0,10.84-1.18,15.67-3.32l-.06-79.36c-4.8-2.12-10.07-3.29-15.6-3.29Z"/>
        <path class="cls-1" d="m1078.07,142.39c-.71,0-1.34-.46-1.56-1.13l-6.64-20.42c-.49-1.51-2.63-1.51-3.12,0l-6.64,20.42c-.22.68-.85,1.13-1.56,1.13h-21.47c-1.59,0-2.25,2.04-.97,2.97l17.37,12.62c.58.42.82,1.16.6,1.84l-6.64,20.42c-.49,1.51,1.24,2.77,2.53,1.84l17.37-12.62c.58-.42,1.36-.42,1.93,0l11.86,8.62-.03-35.69h-3.04Z"/>
      </g>
      <g>
        <path class="cls-4" d="m1008.15,173.59c-42.71,0-77.33,34.62-77.33,77.33s34.62,77.33,77.33,77.33c33.84,0,62.59-21.75,73.07-52.03l-.04-50.72c-10.52-30.22-39.23-51.91-73.03-51.91Z"/>
        <circle class="cls-3" cx="1008.15" cy="250.91" r="72.53"/>
        <ellipse class="cls-4" cx="1003.35" cy="251.31" rx="68.94" ry="72.93"/>
        <path class="cls-1" d="m1043.74,208.6l-14.2,33.56c-.47,1.11-.17,2.4.74,3.19l27.53,23.87c2.04,1.77.62,5.11-2.07,4.88l-36.3-3.13c-1.2-.1-2.34.58-2.81,1.69l-14.2,33.56c-1.05,2.49-4.67,2.17-5.28-.46l-8.24-35.49c-.27-1.18-1.27-2.04-2.48-2.15l-36.3-3.13c-2.69-.23-3.51-3.77-1.2-5.16l31.21-18.81c1.03-.62,1.55-1.84,1.28-3.02l-8.24-35.49c-.61-2.63,2.5-4.51,4.54-2.74l27.53,23.87c.91.79,2.23.9,3.26.28l31.21-18.81c2.31-1.39,5.06.99,4.01,3.47Z"/>
      </g>
      <g>
        <path class="cls-4" d="m1063.94,390.5c-56.15,0-101.67,45.52-101.67,101.67s45.52,101.67,101.67,101.67c5.98,0,11.83-.52,17.53-1.51l-.16-200.35c-5.65-.97-11.45-1.48-17.37-1.48Z"/>
        <path class="cls-3" d="m1063.94,396.81c-52.67,0-95.37,42.7-95.37,95.37s42.7,95.37,95.37,95.37c5.99,0,11.84-.56,17.52-1.61l-.15-187.54c-5.63-1.04-11.44-1.58-17.38-1.58Z"/>
        <path class="cls-4" d="m1057.63,396.81c-50.06,0-90.64,42.93-90.64,95.89s40.58,95.89,90.64,95.89c8.25,0,16.23-1.17,23.83-3.36l-.15-185.12c-7.55-2.16-15.49-3.31-23.68-3.31Z"/>
        <path class="cls-1" d="m1065.57,456.12c-1.12,1.13-2.84,1.41-4.25.69l-42.77-21.59c-3.17-1.6-6.53,1.79-4.91,4.95l21.91,42.61c.73,1.41.46,3.13-.66,4.26l-33.75,34c-2.5,2.52-.32,6.77,3.19,6.2l47.29-7.67c1.57-.25,3.12.53,3.85,1.94l21.91,42.61c.86,1.66,2.57,2.23,4.08,1.89l-.1-125.77-15.78,15.9Z"/>
      </g>
      <g>
        <path class="cls-4" d="m1017.77,816.45c0,37.89,27.68,69.31,63.93,75.15l-.12-150.28c-36.18,5.89-63.81,37.28-63.81,75.13Z"/>
        <path class="cls-3" d="m1022.5,816.45c0,35.27,25.58,64.56,59.2,70.35l-.11-140.69c-33.57,5.84-59.09,35.1-59.09,70.33Z"/>
        <path class="cls-4" d="m1021.32,816.85c0,36.98,26.42,67.42,60.38,71.36l-.11-142.71c-33.91,4-60.27,34.41-60.27,71.35Z"/>
        <path class="cls-1" d="m1077.32,789.48c-.48,1.09-1.6,1.75-2.79,1.63l-35.7-3.57c-2.65-.26-4.08,3.01-2.1,4.78l26.78,23.87c.89.79,1.16,2.06.69,3.15l-14.43,32.85c-1.07,2.43,1.6,4.81,3.9,3.47l27.99-16.35-.05-59.61-4.3,9.78Z"/>
      </g>
      <g>
        <path class="cls-4" d="m997.03,1564.78c0,47.16,38.15,85.41,85.27,85.59l-.13-171.17c-47.06.25-85.13,38.47-85.13,85.58Z"/>
        <path class="cls-3" d="m1002.34,1564.78c0,44.23,35.77,80.1,79.95,80.28l-.13-160.56c-44.13.25-79.83,36.09-79.83,80.28Z"/>
        <path class="cls-4" d="m1077.32,1484.49c-42.14,0-76.31,36.14-76.31,80.73s34.16,80.73,76.31,80.73c1.67,0,3.33-.08,4.98-.19l-.13-161.09c-1.61-.11-3.22-.18-4.85-.18Z"/>
        <path class="cls-1" d="m1071.99,1536.82c-.36,1.29-1.52,2.19-2.85,2.24l-40.3,1.52c-2.99.11-4.08,3.98-1.6,5.65l33.5,22.46c1.11.74,1.61,2.12,1.25,3.4l-11.01,38.8c-.82,2.88,2.52,5.11,4.87,3.27l26.41-20.75-.07-92.52-10.2,35.93Z"/>
      </g>
      <g>
        <path class="cls-4" d="m1067.55,1154.91c-47.27,0-85.6,38.32-85.6,85.6s38.32,85.6,85.6,85.6c4.94,0,9.78-.44,14.5-1.25l-.13-168.72c-4.67-.79-9.47-1.22-14.36-1.22Z"/>
        <path class="cls-3" d="m1067.55,1160.22c-44.34,0-80.29,35.95-80.29,80.29s35.95,80.29,80.29,80.29c4.95,0,9.79-.47,14.49-1.33l-.12-157.94c-4.66-.84-9.46-1.31-14.37-1.31Z"/>
        <path class="cls-4" d="m1062.24,1160.22c-42.14,0-76.31,36.14-76.31,80.73s34.16,80.73,76.31,80.73c6.85,0,13.48-.97,19.8-2.76l-.12-155.97c-6.28-1.77-12.87-2.72-19.68-2.72Z"/>
        <path class="cls-1" d="m1078.62,1212.76c-1.24.49-2.66.13-3.51-.9l-25.69-31.1c-1.9-2.3-5.64-.83-5.46,2.16l2.5,40.26c.08,1.33-.7,2.57-1.95,3.06l-37.51,14.82c-2.78,1.1-2.53,5.11.36,5.86l39.06,10.06c1.29.33,2.23,1.46,2.31,2.8l2.5,40.26c.19,2.98,4.08,3.99,5.68,1.46l21.64-34.04c.72-1.13,2.08-1.67,3.37-1.33l.06.02-.04-54.68-3.33,1.32Z"/>
      </g>
      <g>
        <path class="cls-4" d="m1082.48,1885.61c-17.03-27.44-47.43-45.71-82.1-45.71-53.34,0-96.58,43.24-96.58,96.58,0,15.26,3.54,29.69,9.85,42.52h168.91l-.07-93.39Z"/>
        <path class="cls-3" d="m1082.55,1974.64l-.06-76.45c-14.43-30.89-45.77-52.3-82.11-52.3-50.03,0-90.59,40.56-90.59,90.59,0,15.37,3.83,29.84,10.59,42.52h159.99c.76-1.43,1.5-2.88,2.19-4.36Z"/>
        <path class="cls-4" d="m1080.49,1936.98c0-50.31-38.55-91.09-86.1-91.09s-86.1,40.78-86.1,91.09c0,15.16,3.5,29.45,9.7,42.02h152.8c6.19-12.57,9.7-26.86,9.7-42.02Z"/>
        <path class="cls-1" d="m1019.46,1959.69c.2-1.49,1.35-2.69,2.83-2.96l44.78-8.09c3.32-.6,3.93-5.1.89-6.56l-40.99-19.78c-1.36-.66-2.14-2.11-1.94-3.61l6.14-45.09c.46-3.34-3.63-5.31-5.96-2.88l-31.47,32.87c-1.04,1.09-2.67,1.38-4.03.73l-40.99-19.78c-3.04-1.47-6.18,1.81-4.58,4.78l21.53,40.09c.71,1.33.49,2.97-.55,4.05l-31.47,32.87c-2.33,2.44-.19,6.43,3.13,5.83l44.78-8.09c1.48-.27,2.97.45,3.69,1.78l7.05,13.13h24.51l2.63-19.31Z"/>
      </g>
      <g>
        <path class="cls-4" d="m1058.68,1610.7c-35.71,0-64.65,28.95-64.65,64.65s28.95,64.65,64.65,64.65c8.36,0,16.35-1.61,23.69-4.5l-.09-120.35c-7.31-2.87-15.26-4.46-23.59-4.46Z"/>
        <path class="cls-3" d="m1058.68,1614.71c-33.49,0-60.64,27.15-60.64,60.64s27.15,60.64,60.64,60.64c8.4,0,16.41-1.71,23.68-4.8l-.09-111.73c-7.25-3.07-15.23-4.76-23.6-4.76Z"/>
        <path class="cls-4" d="m1054.67,1614.71c-31.83,0-57.64,27.3-57.64,60.98s25.81,60.98,57.64,60.98c10.04,0,19.47-2.72,27.69-7.49l-.08-107.02c-8.2-4.74-17.6-7.44-27.61-7.44Z"/>
        <path class="cls-1" d="m1076.53,1666.01c-.91-.45-1.42-1.42-1.28-2.42l4.36-30.15c.32-2.23-2.4-3.58-3.98-1.96l-21.25,21.83c-.7.72-1.79.91-2.7.47l-27.33-13.46c-2.03-1-4.14,1.18-3.09,3.18l14.2,26.95c.47.89.31,1.99-.39,2.71l-21.25,21.83c-1.57,1.62-.16,4.31,2.07,3.92l30.02-5.18c.99-.17,1.99.32,2.46,1.21l14.2,26.95c1.05,2,4.05,1.48,4.37-.75l4.36-30.15c.14-1,.92-1.79,1.91-1.96l9.13-1.57v-18.6s-5.8-2.85-5.8-2.85Z"/>
      </g>
    </g>
    <g>
      <circle class="cls-4" cx="181.37" cy="114.96" r="82.95"/>
      <circle class="cls-3" cx="181.37" cy="114.96" r="77.81"/>
      <ellipse class="cls-4" cx="176.22" cy="115.39" rx="73.95" ry="78.24"/>
      <path class="cls-1" d="m184.21,54.25l12.08,37.17c.4,1.23,1.55,2.07,2.84,2.07h39.09c2.9,0,4.1,3.71,1.76,5.41l-31.62,22.97c-1.05.76-1.49,2.11-1.09,3.34l12.08,37.17c.9,2.75-2.26,5.05-4.6,3.34l-31.62-22.97c-1.05-.76-2.47-.76-3.51,0l-31.62,22.97c-2.34,1.7-5.5-.59-4.6-3.34l12.08-37.17c.4-1.23-.04-2.58-1.09-3.34l-31.62-22.97c-2.34-1.7-1.14-5.41,1.76-5.41h39.09c1.3,0,2.44-.83,2.84-2.07l12.08-37.17c.9-2.75,4.79-2.75,5.69,0Z"/>
    </g>
  </g>
</svg>